# xmcd
#
# Track frame offsets:
#	182
#	13235
#	36107
#	49107
#	61507
#	74992
#	86492
#	97520
#	109782
#	120240
#	134717
#	149687
#	172505
#
# Disc length: 2921 seconds
#
# Revision: 1
# Processed by: cddbd v1.5.2PL0 Copyright (c) Steve Scherf et al.
# Submitted via: audiograbber 1.83.01
#
DISCID=ab0b670d
DTITLE=Pacho Alonso - Rico Pilon
DYEAR=1991
DGENRE=
TTITLE0=Que Me Digan Feo
TTITLE1=El Que Siembra Su Maiz
TTITLE2=Rico Pilon
TTITLE3=Niebla De Riachuelo
TTITLE4=La Pianola De Manola
TTITLE5=A Cualquiera Se Le Muere Un Tio
TTITLE6=Fea La Jicotea
TTITLE7=Dame La Mano Y Caminemos
TTITLE8=Simale A Lo Bonne
TTITLE9=Un Minuto De Felicidad
TTITLE10=La Chalupa Del Upa Upa
TTITLE11=Yo No Quiero Piedra En Mi Camino
TTITLE12=El Guayabero
EXTD=
EXTT0=
EXTT1=
EXTT2=
EXTT3=
EXTT4=
EXTT5=
EXTT6=
EXTT7=
EXTT8=
EXTT9=
EXTT10=
EXTT11=
EXTT12=
PLAYORDER=
